<?xml version="1.0" encoding="utf-8"?>
<!-- Generator: Adobe Illustrator 22.0.1, SVG Export Plug-In . SVG Version: 6.00 Build 0)  -->
<svg version="1.1" id="Слой_1" xmlns="http://www.w3.org/2000/svg" xmlns:xlink="http://www.w3.org/1999/xlink" x="0px" y="0px"
	 viewBox="0 0 138 138" xml:space="preserve" fill='#B52D2D'>

<g>
	<path class="st0" d="M40.6,42.5l3,5.3l3,5.3l-6.1,0l-6.1,0l3.1-5.2L40.6,42.5 M40.7,22.5L28.9,42.7L17.1,62.8L40.5,63l23.4,0.2
		L52.3,42.8L40.7,22.5L40.7,22.5z"/>
</g>
<g>
	<path class="st0" d="M54,79v27H27V79H54 M64,69H17v47h47V69L64,69z"
	 />
</g>
<g>
	<path class="st0" d="M98.5,79c7.4,0,13.5,6.1,13.5,13.5S105.9,106,98.5,106S85,99.9,85,92.5S91.1,79,98.5,79 M98.5,69
		C85.5,69,75,79.5,75,92.5S85.5,116,98.5,116S122,105.5,122,92.5S111.5,69,98.5,69L98.5,69z"/>
</g>
<g>
	<g>
		
			<rect x="93.5" y="20.6" transform="matrix(0.7071 -0.7071 0.7071 0.7071 -1.2017 82.0987)" class="st0" width="10" height="43.8"/>
	</g>
	<g>
		
			<rect x="76.6" y="37.5" transform="matrix(0.7071 -0.7071 0.7071 0.7071 -1.2033 82.0945)" class="st0" width="43.8" height="10"/>
	</g>
</g>
</svg>
